<?xml version="1.0" encoding="UTF-8"?>
<svg version="1.2" xmlns="http://www.w3.org/2000/svg" width="120" height="120">
<title> Tirranaa | Ivaylo Yordanov </title>
<path d="M0,0 L24,0 L35,2 L37,4 L44,7 L52,11 L59,19 L63,22 L63,25 L61,25 L61,30 L68,31 L71,35 L71,44 L74,45 L74,76 L71,82 L71,86 L64,85 L64,87 L66,87 L67,93 L66,95 L63,95 L63,100 L58,105 L53,109 L50,112 L42,116 L33,117 L33,119 L31,120 L6,120 L-7,118 L-15,115 L-16,112 L-22,110 L-27,106 L-26,99 L-33,100 L-34,98 L-34,88 L-41,87 L-44,80 L-44,73 L-43,71 L-46,70 L-46,51 L-44,45 L-39,46 L-38,47 L-38,40 L-40,37 L-39,30 L-32,20 L-31,17 L-25,15 L-24,12 L-13,6 L-4,2 Z " fill="#070505" transform="translate(46,0)"/>
<path d="M0,0 L24,0 L35,2 L37,4 L44,7 L52,11 L59,19 L63,22 L63,25 L61,25 L61,30 L68,31 L71,35 L71,44 L74,45 L74,76 L71,82 L71,86 L64,85 L64,87 L66,87 L67,93 L66,95 L63,95 L63,100 L58,105 L53,109 L50,112 L42,116 L33,117 L33,119 L31,120 L6,120 L-7,118 L-15,115 L-16,112 L-22,110 L-27,106 L-26,99 L-33,100 L-34,98 L-34,88 L-41,87 L-44,80 L-44,73 L-43,71 L-46,70 L-46,51 L-44,45 L-39,46 L-38,47 L-38,40 L-40,37 L-39,30 L-32,20 L-31,17 L-25,15 L-24,12 L-13,6 L-4,2 Z M11,11 L11,13 L28,16 L38,19 L38,21 L44,25 L47,28 L52,32 L59,46 L61,61 L59,74 L60,57 L57,43 L54,37 L49,37 L49,35 L45,35 L43,31 L41,31 L41,29 L35,27 L34,23 L31,23 L31,18 L27,17 L26,19 L22,20 L22,16 L14,14 L11,14 L12,18 L13,20 L5,16 L-1,17 L-1,23 L-2,26 L-12,29 L-12,31 L-20,31 L-23,35 L-23,40 L-20,44 L-27,43 L-28,52 L-29,57 L-26,63 L-24,63 L-24,72 L-23,80 L-22,86 L-17,86 L-14,87 L-14,89 L-10,89 L-10,91 L-7,94 L2,96 L18,98 L22,99 L31,97 L32,98 L38,98 L38,96 L40,96 L40,93 L42,93 L42,95 L44,96 L41,97 L41,99 L37,101 L42,100 L46,98 L53,90 L57,84 L56,82 L49,91 L45,85 L51,86 L51,76 L53,76 L54,79 L58,80 L61,75 L63,64 L63,53 L58,36 L51,27 L43,20 L34,15 L25,12 Z " fill="#391307" transform="translate(46,0)"/>
<path d="M0,0 L2,0 L2,5 L10,4 L11,7 L20,8 L23,7 L23,5 L25,5 L25,7 L28,7 L29,10 L31,11 L32,14 L46,16 L48,20 L50,29 L53,32 L53,40 L56,46 L55,48 L59,49 L60,57 L57,58 L56,64 L58,69 L58,73 L55,73 L54,70 L49,83 L51,83 L51,87 L49,87 L47,91 L41,91 L41,96 L39,96 L39,98 L33,100 L25,104 L15,106 L14,110 L8,111 L8,106 L3,106 L4,110 L1,109 L1,107 L-4,110 L-7,110 L-7,107 L-12,108 L-20,105 L-21,101 L-27,100 L-27,98 L-31,98 L-33,93 L-40,90 L-42,83 L-42,73 L-48,73 L-48,63 L-44,64 L-44,59 L-46,59 L-47,57 L-47,51 L-45,51 L-43,47 L-43,36 L-40,35 L-40,33 L-37,30 L-34,25 L-31,22 L-30,18 L-23,16 L-23,11 L-25,9 L-23,7 L-19,7 L-19,9 L-9,10 L-9,8 L-11,8 L-13,5 L-13,2 Z M2,8 L2,10 L19,13 L29,16 L29,18 L35,22 L38,25 L43,29 L50,43 L52,58 L50,71 L51,54 L48,40 L45,34 L40,34 L40,32 L36,32 L34,28 L32,28 L32,26 L26,24 L25,20 L22,20 L22,15 L18,14 L17,16 L13,17 L13,13 L5,11 L2,11 L3,15 L4,17 L-4,13 L-10,14 L-10,20 L-11,23 L-21,26 L-21,28 L-29,28 L-32,32 L-32,37 L-29,41 L-36,40 L-37,49 L-38,54 L-35,60 L-33,60 L-33,69 L-32,77 L-31,83 L-26,83 L-23,84 L-23,86 L-19,86 L-19,88 L-16,91 L-7,93 L9,95 L13,96 L22,94 L23,95 L29,95 L29,93 L31,93 L31,90 L33,90 L33,92 L35,93 L32,94 L32,96 L28,98 L33,97 L37,95 L44,87 L48,81 L47,79 L40,88 L36,82 L42,83 L42,73 L44,73 L45,76 L49,77 L52,72 L54,61 L54,50 L49,33 L42,24 L34,17 L25,12 L16,9 Z " fill="#D59E61" transform="translate(55,3)"/>
<path d="M0,0 L14,1 L26,5 L35,11 L42,19 L47,25 L52,42 L52,53 L50,64 L47,69 L42,67 L42,65 L40,65 L40,75 L34,74 L38,80 L45,71 L46,73 L40,81 L35,87 L30,90 L26,89 L30,88 L30,86 L33,85 L31,84 L31,82 L29,82 L29,85 L27,85 L27,87 L21,87 L18,86 L8,88 L2,86 L-9,85 L-18,83 L-21,80 L-21,78 L-25,78 L-25,76 L-33,75 L-34,69 L-35,61 L-35,52 L-37,52 L-40,46 L-39,41 L-38,32 L-31,33 L-34,29 L-33,22 L-31,20 L-23,20 L-23,18 L-13,15 L-12,6 L-6,5 L2,9 L0,6 L0,3 L9,4 L11,5 L11,9 L15,8 L16,6 L20,7 L20,12 L23,12 L24,16 L30,18 L30,20 L34,22 L34,24 L38,24 L38,26 L43,26 L47,35 L49,46 L48,63 L50,49 L48,35 L41,21 L36,17 L29,11 L27,10 L27,8 L17,5 L0,2 Z M4,14 L-6,17 L-14,21 L-20,23 L-26,27 L-26,33 L-31,33 L-36,35 L-37,43 L-34,44 L-34,41 L-32,41 L-32,48 L-29,48 L-29,54 L-27,56 L-26,67 L-22,74 L-14,74 L-14,80 L-13,82 L-7,81 L-4,79 L-3,82 L1,83 L9,83 L9,81 L15,80 L21,79 L24,80 L24,71 L28,71 L31,66 L39,63 L39,58 L36,53 L39,53 L40,44 L35,45 L35,39 L33,34 L34,30 L35,27 L33,27 L32,24 L23,24 L19,18 L17,19 L17,21 L19,21 L18,23 L16,21 L16,17 L9,16 L8,14 Z " fill="#6B280E" transform="translate(57,11)"/>
<path d="M0,0 L2,1 L2,3 L4,3 L2,7 L3,13 L4,15 L4,21 L9,20 L8,29 L5,29 L8,34 L8,39 L0,42 L-3,47 L-7,47 L-7,56 L-14,55 L-19,57 L-22,57 L-22,59 L-30,59 L-35,57 L-35,55 L-38,56 L-39,54 L-35,54 L-35,51 L-30,52 L-29,50 L-28,49 L-28,45 L-24,45 L-23,40 L-20,39 L-18,34 L-14,34 L-15,29 L-10,28 L-7,29 L-6,27 L-8,27 L-7,22 L-5,22 L-5,20 L-8,20 L-10,26 L-18,27 L-18,25 L-24,24 L-23,29 L-26,29 L-27,22 L-29,22 L-29,20 L-26,20 L-25,16 L-21,17 L-14,17 L-12,18 L-11,9 L-7,7 L-10,5 L-7,3 L-1,3 Z " fill="#040303" transform="translate(88,35)"/>
<path d="M0,0 L2,0 L2,2 L5,2 L6,5 L8,6 L9,9 L23,11 L25,15 L27,24 L30,27 L30,35 L33,41 L32,43 L36,44 L37,52 L34,53 L33,59 L35,64 L35,68 L32,68 L31,65 L26,78 L28,78 L28,82 L26,82 L24,86 L18,86 L18,91 L16,91 L16,93 L10,95 L2,99 L-8,101 L-9,105 L-15,106 L-15,101 L-20,101 L-19,105 L-22,104 L-22,102 L-27,105 L-30,105 L-30,102 L-35,103 L-43,100 L-44,96 L-50,95 L-50,93 L-54,93 L-56,88 L-63,85 L-65,78 L-65,68 L-64,72 L-62,72 L-61,83 L-53,85 L-52,83 L-55,82 L-62,70 L-64,59 L-65,54 L-65,43 L-62,35 L-60,28 L-53,18 L-49,14 L-42,10 L-37,7 L-23,3 L-23,6 L-34,9 L-46,16 L-52,21 L-55,26 L-57,26 L-58,31 L-60,37 L-61,43 L-63,43 L-61,65 L-57,74 L-57,76 L-55,76 L-54,79 L-51,80 L-48,86 L-42,91 L-26,97 L-16,98 L9,92 L14,90 L15,87 L17,87 L19,83 L24,76 L20,80 L16,84 L13,79 L13,77 L19,78 L19,68 L21,68 L22,70 L26,71 L29,63 L30,56 L30,45 L25,28 L19,21 L19,19 L15,17 L14,14 L9,12 L2,8 L-7,5 L-3,3 L0,2 Z " fill="#C97D41" transform="translate(78,8)"/>
<path d="M0,0 L7,2 L7,4 L12,5 L14,10 L7,9 L7,13 L5,13 L3,4 L1,4 L0,8 L-3,5 L-3,7 L-5,7 L-6,11 L-6,9 L-10,11 L-11,13 L-8,13 L-8,16 L-5,16 L-5,18 L5,15 L11,17 L12,15 L14,16 L14,14 L12,13 L15,12 L16,19 L15,23 L4,23 L2,22 L1,25 L-2,25 L-2,27 L0,27 L1,34 L4,34 L2,28 L7,29 L9,30 L9,32 L13,30 L17,29 L19,25 L22,25 L22,27 L20,27 L19,32 L21,32 L20,35 L13,34 L13,39 L9,39 L7,44 L4,46 L3,50 L-5,51 L-7,45 L0,44 L3,44 L3,41 L-6,39 L-6,42 L-8,42 L-9,44 L-11,42 L-14,42 L-15,38 L-19,38 L-21,40 L-23,36 L-24,25 L-21,23 L-20,12 L-17,11 L-15,6 L-10,1 Z " fill="#090909" transform="translate(61,30)"/>
<path d="M0,0 L2,1 L4,3 L4,8 L-4,11 L-5,16 L-9,19 L-12,25 L-14,25 L-14,27 L-16,28 L-16,39 L-19,43 L-21,43 L-20,51 L-18,51 L-18,56 L-21,57 L-22,65 L-16,65 L-16,75 L-22,73 L-22,71 L-25,70 L-26,63 L-24,59 L-27,58 L-28,42 L-27,40 L-19,39 L-20,26 L-22,25 L-22,19 L-15,9 L-14,6 L-8,4 L-7,1 Z " fill="#5C210B" transform="translate(29,11)"/>
<path d="M0,0 L9,1 L11,2 L11,6 L15,5 L16,3 L20,4 L20,9 L23,9 L23,12 L14,13 L13,9 L6,8 L6,11 L-6,15 L-14,19 L-20,21 L-25,24 L-26,30 L-31,30 L-34,26 L-33,19 L-31,17 L-23,17 L-23,15 L-13,12 L-12,3 L-6,2 L2,6 L0,3 Z " fill="#7A2C0D" transform="translate(57,14)"/>
<path d="M0,0 L3,0 L3,2 L1,2 L0,7 L2,7 L1,10 L-6,9 L-6,14 L-10,14 L-12,19 L-15,21 L-16,25 L-24,26 L-26,20 L-19,19 L-16,19 L-16,16 L-25,14 L-25,17 L-27,17 L-28,19 L-30,17 L-33,17 L-34,13 L-38,13 L-40,15 L-41,9 L-39,8 L-39,4 L-35,4 L-35,2 L-30,2 L-28,7 L-34,8 L-34,10 L-26,9 L-26,13 L-24,13 L-23,7 L-20,3 L-18,6 L-18,9 L-15,9 L-17,3 L-12,4 L-10,5 L-10,7 L-6,5 L-2,4 Z " fill="#313131" transform="translate(80,55)"/>
<path d="M0,0 L2,0 L2,2 L5,2 L6,5 L8,6 L9,9 L23,11 L25,15 L27,24 L30,27 L30,35 L33,41 L32,43 L36,44 L37,52 L34,53 L33,59 L35,64 L35,68 L32,68 L31,65 L27,74 L22,77 L17,84 L13,79 L13,77 L19,78 L19,68 L21,68 L22,70 L26,71 L29,63 L30,56 L30,45 L25,28 L19,21 L19,19 L15,17 L14,14 L9,12 L2,8 L-7,5 L-3,3 L0,2 Z " fill="#C57C47" transform="translate(78,8)"/>
<path d="M0,0 L1,3 L-10,6 L-22,13 L-28,18 L-31,23 L-33,23 L-34,28 L-36,34 L-37,40 L-39,40 L-37,62 L-33,71 L-33,73 L-31,73 L-30,76 L-27,77 L-24,83 L-18,88 L-2,94 L8,95 L29,90 L28,93 L11,97 L-6,96 L-19,90 L-28,83 L-28,80 L-31,79 L-38,67 L-40,56 L-41,51 L-41,40 L-38,32 L-36,25 L-29,15 L-25,11 L-18,7 L-13,4 Z " fill="#302A23" transform="translate(54,11)"/>
<path d="M0,0 L1,4 L4,5 L4,18 L-4,19 L-4,28 L-3,37 L-1,38 L-2,46 L-1,49 L1,50 L1,52 L6,53 L9,56 L10,61 L16,63 L16,73 L21,74 L23,78 L27,82 L32,83 L32,84 L26,84 L24,80 L18,78 L13,74 L14,67 L7,68 L6,66 L6,56 L-1,55 L-4,48 L-4,41 L-3,39 L-6,38 L-6,19 L-4,13 L1,14 L2,15 L2,8 L0,5 Z " fill="#230D07" transform="translate(6,32)"/>
<path d="M0,0 L7,1 L6,3 L2,3 L2,11 L4,12 L4,9 L6,9 L8,26 L8,38 L13,40 L18,43 L18,45 L21,46 L22,51 L20,51 L17,48 L17,46 L13,46 L13,44 L5,43 L4,37 L3,29 L3,20 L1,20 L-2,14 L-1,9 Z " fill="#7E2C0D" transform="translate(19,43)"/>
<path d="M0,0 L2,0 L3,7 L8,7 L8,5 L11,5 L11,8 L8,8 L8,18 L12,19 L12,22 L7,21 L6,39 L1,37 L-3,35 L-3,40 L-6,40 L-6,47 L-12,47 L-12,45 L-18,45 L-16,43 L-11,44 L-9,45 L-9,36 L-5,36 L-4,32 L-1,29 L6,28 L4,22 L3,18 L6,18 L7,9 L2,10 Z " fill="#421708" transform="translate(90,46)"/>
<path d="M0,0 L4,0 L5,3 L10,4 L10,5 L-3,5 L-4,6 L10,7 L21,11 L22,13 L17,13 L17,11 L12,10 L11,13 L7,13 L7,9 L-4,7 L-2,13 L-8,11 L-14,10 L-16,11 L-18,17 L-20,17 L-21,20 L-28,20 L-31,18 L-23,12 L-15,8 L-6,7 L-7,5 L-11,4 L-9,3 L0,3 Z " fill="#D2A166" transform="translate(61,7)"/>
<path d="M0,0 L6,0 L6,2 L4,3 L4,10 L-3,11 L-5,11 L-3,12 L-3,14 L-8,18 L-17,19 L-21,21 L-22,17 L-26,16 L-27,19 L-26,14 L-16,12 L-8,8 L-7,7 L-2,7 L-2,5 L0,5 Z " fill="#973610" transform="translate(96,94)"/>
<path d="M0,0 L2,4 L3,6 L11,9 L13,19 L13,21 L15,21 L14,39 L9,39 L9,45 L7,42 L8,36 L12,35 L11,27 L7,26 L6,22 L4,18 L4,10 L0,5 Z " fill="#8A3310" transform="translate(103,25)"/>
<path d="M0,0 L5,0 L7,5 L1,6 L1,8 L9,7 L9,11 L11,11 L12,5 L15,1 L16,2 L18,13 L12,13 L10,12 L10,15 L8,15 L7,17 L5,15 L2,15 L1,11 L-3,11 L-5,13 L-6,7 L-4,6 L-4,2 L0,2 Z " fill="#5F5F5F" transform="translate(45,57)"/>
<path d="M0,0 L9,1 L16,5 L19,10 L19,12 L23,13 L23,17 L20,16 L20,13 L17,12 L17,9 L14,9 L14,7 L12,7 L12,9 L9,11 L0,10 L-1,6 L-9,7 L-9,2 L-15,3 L-12,1 L-6,1 L-5,4 L0,4 Z " fill="#511E0D" transform="translate(66,1)"/>
<path d="M0,0 L5,1 L7,5 L10,5 L14,5 L14,2 L23,4 L23,7 L15,8 L13,8 L15,11 L15,14 L19,14 L19,17 L21,18 L15,20 L12,19 L12,16 L8,15 L8,13 L6,13 L6,15 L4,15 L4,12 L6,11 L7,8 L1,9 L1,5 L3,5 L3,3 L0,3 Z " fill="#131313" transform="translate(41,67)"/>
<path d="M0,0 L14,1 L26,5 L35,11 L42,19 L47,25 L52,42 L52,53 L50,64 L47,69 L46,67 L49,58 L50,49 L48,35 L41,21 L36,17 L29,11 L27,10 L27,8 L17,5 L0,2 Z " fill="#302A23" transform="translate(57,11)"/>
<path d="M0,0 L1,2 L5,2 L5,4 L11,5 L13,9 L23,11 L25,11 L25,14 L30,11 L33,11 L33,13 L35,12 L35,10 L40,10 L40,15 L43,15 L43,17 L33,17 L33,15 L29,15 L25,17 L20,16 L12,15 L12,10 L6,10 L4,3 L0,3 Z " fill="#953812" transform="translate(23,99)"/>
<path d="M0,0 L2,0 L2,5 L6,5 L6,7 L-5,8 L-5,10 L-17,14 L-19,13 L-20,15 L-22,15 L-23,11 L-25,9 L-23,7 L-19,7 L-19,9 L-9,10 L-9,8 L-11,8 L-13,5 L-13,2 Z " fill="#CE8C52" transform="translate(55,3)"/>
<path d="M0,0 L7,2 L7,4 L12,5 L14,10 L7,9 L7,13 L5,13 L3,4 L1,4 L0,8 L-1,4 L-4,4 L-5,6 L-8,6 L-10,7 L-11,10 L-14,10 L-14,12 L-18,14 L-16,7 L-11,2 L-7,1 Z " fill="#454545" transform="translate(61,30)"/>
<path d="M0,0 L1,2 L3,3 L1,3 L1,5 L-1,5 L-2,9 L-2,7 L-6,9 L-6,12 L-8,13 L-9,16 L-7,16 L-7,18 L-5,18 L-5,15 L-3,15 L-2,21 L-9,21 L-14,22 L-15,21 L-16,10 L-13,10 L-10,10 L-10,8 L-7,7 L-5,3 L-2,2 L-1,1 Z " fill="#2B2B2B" transform="translate(57,32)"/>
<path d="M0,0 L5,0 L5,2 L8,3 L1,5 L0,10 L-4,13 L-7,19 L-9,19 L-9,21 L-11,22 L-11,33 L-13,30 L-13,21 L-11,16 L-8,16 L-6,12 L-4,8 L-7,8 L-7,3 L-1,1 Z " fill="#C15D28" transform="translate(24,17)"/>
<path d="M0,0 L2,3 L7,4 L8,12 L8,18 L13,17 L15,19 L15,22 L18,22 L17,27 L13,26 L11,23 L11,20 L7,19 L7,16 L5,16 L1,7 Z " fill="#DCB16D" transform="translate(16,68)"/>
<path d="M0,0 L1,2 L5,2 L5,4 L8,5 L8,7 L10,7 L10,9 L14,10 L11,11 L11,13 L17,14 L25,13 L25,16 L20,16 L20,18 L10,15 L4,12 L1,8 L3,3 L0,3 Z " fill="#D18C4E" transform="translate(31,87)"/>
<path d="M0,0 L3,1 L2,3 L0,3 L1,11 L3,11 L3,16 L0,17 L-1,24 L-2,24 L-3,17 L-5,16 L-5,1 Z " fill="#953612" transform="translate(8,51)"/>
<path d="M0,0 L7,0 L4,3 L1,6 L-7,10 L-16,11 L-16,13 L-18,14 L-29,14 L-28,11 L-24,10 L-23,11 L-18,11 L-15,7 L-5,6 L-3,3 L0,3 Z " fill="#290D05" transform="translate(95,106)"/>
<path d="M0,0 L5,0 L5,10 L10,12 L15,15 L15,17 L18,18 L19,23 L17,23 L14,20 L14,18 L10,18 L10,16 L2,15 L1,9 Z " fill="#B04717" transform="translate(22,71)"/>
<path d="M0,0 L3,1 L4,8 L2,8 L1,12 L-6,11 L-3,18 L-4,22 L-10,24 L-8,20 L-6,20 L-6,16 L-8,16 L-7,10 L-3,1 L-2,1 L-2,6 L1,6 Z " fill="#842F0C" transform="translate(112,70)"/>
<path d="M0,0 L2,4 L1,11 L-4,16 L-6,17 L-6,14 L-8,14 L-8,17 L-11,16 L-10,8 L-5,6 L0,6 Z " fill="#441606" transform="translate(31,38)"/>
<path d="M0,0 L3,1 L1,1 L1,6 L-2,6 L-2,13 L-11,14 L-12,16 L-22,18 L-28,16 L-39,15 L-39,14 L-19,14 L-15,10 L-9,10 L-9,12 L-3,12 L-3,5 L0,5 Z " fill="#7C2C0D" transform="translate(87,81)"/>
<path d="M0,0 L7,1 L23,3 L24,5 L13,5 L11,4 L10,7 L5,8 L0,6 L0,2 Z " fill="#D47733" transform="translate(41,94)"/>
<path d="M0,0 L1,4 L3,4 L4,15 L12,17 L17,20 L16,23 L12,22 L12,24 L15,25 L11,25 L9,20 L2,17 L0,10 Z " fill="#CD7438" transform="translate(13,76)"/>
<path d="M0,0 L8,1 L8,3 L6,3 L5,6 L3,8 L1,9 L0,13 L2,14 L-3,15 L-8,11 L-6,11 L-4,6 L0,6 L-1,1 Z " fill="#151515" transform="translate(74,63)"/>
<path d="M0,0 L1,0 L2,7 L1,11 L-10,11 L-12,7 L-9,7 L-9,5 L-13,6 L-14,4 L-9,3 L-3,5 L-2,3 L0,4 L0,2 L-2,1 Z " fill="#1A1A1A" transform="translate(75,42)"/>
<path d="M0,0 L9,1 L11,2 L11,6 L15,5 L16,3 L19,4 L17,4 L16,7 L9,7 L3,5 L3,9 L-1,7 L-7,5 L-8,2 L-1,4 L2,6 L0,3 Z " fill="#C86229" transform="translate(57,14)"/>
<path d="M0,0 L6,1 L6,2 L-3,2 L-1,8 L1,8 L1,10 L-5,11 L-9,9 L-9,7 L-12,7 L-10,3 Z " fill="#68250B" transform="translate(45,3)"/>
<path d="M0,0 L2,1 L1,5 L-3,9 L-4,13 L-12,14 L-14,8 L-7,7 L-4,7 L-3,3 Z " fill="#4D4D4D" transform="translate(68,67)"/>
<path d="M0,0 L2,0 L2,4 L6,4 L7,0 L10,14 L9,18 L8,16 L7,21 L4,21 L3,13 L7,13 L6,6 L-1,5 Z " fill="#B94E1E" transform="translate(96,43)"/>
<path d="M0,0 L1,2 L0,4 L-5,4 L-6,6 L-4,6 L-4,8 L-10,12 L-12,12 L-13,8 L-17,7 L-18,10 L-17,5 L-7,3 Z " fill="#BB521D" transform="translate(87,103)"/>
<path d="M0,0 L3,1 L3,3 L9,4 L13,7 L14,3 L15,8 L7,8 L7,6 L2,6 L2,9 L-3,10 L-2,1 Z " fill="#943510" transform="translate(47,16)"/>
<path d="M0,0 L1,2 L-5,10 L-10,16 L-15,19 L-19,18 L-15,17 L-15,15 L-12,14 L-11,10 L-9,10 L-9,8 L-13,8 L-12,2 L-10,3 L-8,7 L-7,9 Z " fill="#78492A" transform="translate(102,82)"/>
<path d="M0,0 L2,0 L2,5 L6,5 L6,7 L0,7 L-3,4 L-8,6 L-9,8 L-11,8 L-13,5 L-13,2 Z " fill="#A33C13" transform="translate(55,3)"/>
<path d="M0,0 L4,2 L14,7 L10,9 L5,9 L5,7 L-1,6 L-1,3 L-4,3 L-4,1 L0,2 Z " fill="#E1954C" transform="translate(29,97)"/>
<path d="M0,0 L2,0 L2,2 L5,3 L1,4 L1,6 L-4,9 L-13,10 L-14,8 L-11,6 L-11,3 L-2,5 L-2,3 L0,3 Z " fill="#C38954" transform="translate(86,93)"/>
<path d="M0,0 L2,0 L2,2 L5,2 L6,5 L8,6 L9,9 L11,10 L11,12 L6,10 L-4,6 L-7,4 L0,2 Z " fill="#D3985A" transform="translate(78,8)"/>
<path d="M0,0 L2,0 L3,2 L6,2 L5,7 L-2,16 L-6,11 L-6,9 L0,10 Z " fill="#E3AE69" transform="translate(97,76)"/>
<path d="M0,0 L1,0 L1,5 L4,5 L3,9 L0,13 L-3,13 L-4,18 L-6,14 L-6,12 L-3,12 L-4,7 Z " fill="#792A0B" transform="translate(16,20)"/>
<path d="M0,0 L2,1 L4,3 L4,8 L0,8 L0,6 L-6,8 L-10,9 L-6,4 L-5,1 Z " fill="#7B2B0C" transform="translate(29,11)"/>
<path d="M0,0 L3,0 L3,5 L6,5 L6,8 L-3,9 L-4,5 L-8,3 L-1,2 Z " fill="#9D3A13" transform="translate(74,18)"/>
<path d="M0,0 L5,0 L9,6 L9,8 L13,9 L13,13 L10,12 L10,9 L7,8 L7,5 L4,5 L4,3 L2,3 L2,5 L-1,7 L-5,6 L-1,2 Z " fill="#8C330E" transform="translate(76,5)"/>
<path d="M0,0 L5,2 L5,6 L0,7 L-8,4 L-9,2 Z " fill="#C35823" transform="translate(43,104)"/>
<path d="M0,0 L6,1 L6,10 L2,11 L1,17 L5,18 L-1,18 L-1,8 L3,9 L3,4 L1,4 Z " fill="#CF8E56" transform="translate(8,58)"/>
<path d="M0,0 L3,0 L4,6 L3,10 L7,9 L7,11 L3,12 L2,9 L0,9 L0,19 L-5,18 L-3,17 L-1,18 L-1,8 Z " fill="#B14F20" transform="translate(97,67)"/>
<path d="M0,0 L4,0 L4,2 L9,2 L11,6 L11,12 L7,12 L7,8 L5,7 L7,7 L7,4 L1,3 Z " fill="#7F2B0D" transform="translate(91,35)"/>
<path d="M0,0 L2,3 L0,8 L-3,10 L-10,11 L-10,13 L-18,13 L-14,8 L-4,8 L-1,5 Z " fill="#D57737" transform="translate(44,18)"/>
<path d="M0,0 L6,0 L7,3 L13,3 L13,8 L19,8 L19,9 L12,9 L11,5 L3,6 L3,1 L-3,2 Z " fill="#742A0D" transform="translate(54,2)"/>
<path d="M0,0 L2,0 L2,2 L7,4 L9,9 L12,10 L11,17 L9,13 L7,8 L-3,7 L-5,5 L3,6 L3,4 L1,4 Z " fill="#5D200B" transform="translate(94,12)"/>
<path d="M0,0 L1,2 L7,1 L7,5 L5,5 L5,9 L8,7 L12,7 L11,13 L10,11 L4,10 L3,5 L0,5 Z " fill="#D07033" transform="translate(77,18)"/>
<path d="M0,0 L9,1 L8,8 L3,8 L0,4 Z " fill="#7C2A0D" transform="translate(23,36)"/>
<path d="M0,0 L8,0 L21,1 L25,3 L25,4 L14,4 L1,2 Z " fill="#250C05" transform="translate(38,116)"/>
<path d="M0,0 L2,0 L3,2 L15,4 L15,2 L21,1 L19,5 L14,6 L-2,4 L-3,2 Z " fill="#3C1307" transform="translate(51,90)"/>
<path d="M0,0 L4,1 L3,5 L1,5 L0,8 L-3,8 L-3,10 L-7,12 L-5,5 Z " fill="#444444" transform="translate(50,32)"/>
<path d="M0,0 L2,0 L1,4 L-3,8 L-6,9 L-9,15 L-12,15 L-10,11 L-7,5 L-1,3 Z " fill="#280F09" transform="translate(22,12)"/>
<path d="M0,0 L2,1 L2,4 L6,4 L6,7 L8,8 L2,10 L-1,9 L-2,3 Z " fill="#1C1C1C" transform="translate(54,77)"/>
<path d="M0,0 L5,2 L7,6 L11,8 L7,8 L7,10 L4,10 L4,7 L2,6 L5,6 L5,4 L-2,6 L-2,2 L0,2 Z " fill="#E0A763" transform="translate(84,21)"/>
<path d="M0,0 L5,0 L5,2 L8,3 L1,5 L-2,7 L-5,4 L-5,8 L-7,8 L-7,3 L-1,1 Z " fill="#AC4418" transform="translate(24,17)"/>
<path d="M0,0 L7,1 L18,2 L18,3 L4,5 L3,7 L0,6 L0,2 Z " fill="#C45B24" transform="translate(41,94)"/>
<path d="M0,0 L1,4 L9,4 L9,12 L5,12 L6,20 L4,20 L4,11 L8,11 L8,6 L0,7 Z " fill="#8D3210" transform="translate(94,44)"/>
<path d="M0,0 L8,0 L16,3 L17,5 L12,5 L12,3 L7,2 L6,5 L2,5 L2,1 Z " fill="#D69F64" transform="translate(66,15)"/>
<path d="M0,0 L3,1 L5,5 L9,9 L14,10 L14,11 L8,11 L6,7 L0,5 L-3,2 Z " fill="#1A0905" transform="translate(24,105)"/>
<path d="M0,0 L3,0 L3,9 L8,12 L7,15 L4,14 L1,14 L0,8 Z " fill="#D17434" transform="translate(23,72)"/>
<path d="M0,0 L9,2 L9,4 L11,5 L5,8 L3,3 L-1,2 Z " fill="#373737" transform="translate(43,65)"/>
<path d="M0,0 L3,1 L2,3 L0,3 L1,11 L-4,11 L-4,6 Z " fill="#B54517" transform="translate(8,51)"/>
<path d="M0,0 L1,0 L2,7 L1,11 L-5,10 L-5,7 L-3,6 L-2,3 L0,4 L0,2 L-2,1 Z " fill="#2E2E2E" transform="translate(75,42)"/>
<path d="M0,0 L2,1 L3,10 L-1,11 L-2,10 L-2,4 Z " fill="#CCCCCC" transform="translate(59,58)"/>
<path d="M0,0 L7,2 L7,4 L11,6 L10,8 L4,5 L3,8 L1,5 Z " fill="#953E19" transform="translate(80,27)"/>
<path d="M0,0 L4,0 L4,2 L8,4 L3,5 L3,8 L1,8 L0,4 L-2,2 Z " fill="#C35A25" transform="translate(32,10)"/>
<path d="M0,0 L3,1 L3,7 L-2,9 L-5,8 L-3,1 L-2,1 L-2,6 L1,6 Z " fill="#B24B1A" transform="translate(112,70)"/>
<path d="M0,0 L2,1 L1,5 L-2,8 L-8,10 L-7,7 L-4,7 L-3,3 Z " fill="#525252" transform="translate(68,67)"/>
<path d="M0,0 L2,0 L2,2 L7,3 L9,8 L1,7 Z " fill="#4C4C4C" transform="translate(66,32)"/>
<path d="M0,0 L6,0 L2,1 L3,8 L-1,9 L-7,8 L-7,7 L-2,7 L-2,5 L0,5 Z " fill="#BA4E1C" transform="translate(96,94)"/>
<path d="M0,0 L2,0 L2,10 L-3,8 L-3,3 L0,1 Z " fill="#A13A15" transform="translate(11,76)"/>
<path d="M0,0 L5,0 L7,5 L2,5 L-1,3 L-1,5 L-3,5 L-4,2 L0,2 Z " fill="#262626" transform="translate(45,57)"/>
<path d="M0,0 L9,1 L7,7 L3,5 L2,2 L0,2 Z " fill="#D9A361" transform="translate(90,20)"/>
<path d="M0,0 L3,1 L3,3 L6,4 L1,5 L1,8 L-2,7 L-2,1 Z " fill="#B2471A" transform="translate(47,16)"/>
<path d="M0,0 L9,2 L7,4 L3,5 L2,7 L-3,6 L0,3 Z " fill="#CC7436" transform="translate(75,96)"/>
<path d="M0,0 L5,0 L4,4 L3,5 L-2,5 L-2,1 Z " fill="#110502" transform="translate(25,46)"/>
<path d="M0,0 L1,2 L0,9 L-3,9 L-4,1 Z " fill="#CA692F" transform="translate(103,55)"/>
<path d="M0,0 L4,0 L4,2 L-3,5 L-11,5 L-9,3 Z " fill="#D9A667" transform="translate(83,102)"/>
<path d="M0,0 L5,1 L7,5 L10,5 L11,7 L5,7 L3,6 L3,3 L0,3 Z " fill="#2B2B2B" transform="translate(41,67)"/>
<path d="M0,0 L7,1 L6,3 L2,3 L2,9 L0,9 Z " fill="#A54D1B" transform="translate(19,43)"/>
<path d="M0,0 L7,1 L5,2 L3,6 L0,6 Z " fill="#D67234" transform="translate(48,107)"/>
<path d="M0,0 L1,3 L3,3 L5,6 L4,10 L-2,12 L0,8 L2,8 L2,4 L0,4 Z " fill="#9F4116" transform="translate(104,82)"/>
<path d="M0,0 L6,1 L6,3 L3,3 L3,5 L-2,5 L-3,7 L-2,3 Z " fill="#411505" transform="translate(92,38)"/>
<path d="M0,0 L5,0 L5,3 L0,3 L0,5 L-3,4 L-3,1 Z " fill="#EFC371" transform="translate(51,100)"/>
<path d="M0,0 L3,0 L2,6 L0,6 L-2,3 L-8,3 L-8,1 Z " fill="#2D2D2D" transform="translate(54,62)"/>
<path d="M0,0 L3,0 L5,6 L2,7 L0,10 Z " fill="#BD5423" transform="translate(110,54)"/>
<path d="M0,0 L6,0 L6,3 L0,4 L-2,3 L-2,1 Z " fill="#B45A23" transform="translate(60,102)"/>
<path d="M0,0 L3,3 L3,5 L11,5 L12,12 L10,12 L10,6 L2,6 L0,4 Z " fill="#471608" transform="translate(32,80)"/>
<path d="M0,0 L3,3 L2,5 L6,6 L7,12 L5,13 L5,8 L2,8 Z " fill="#D37439" transform="translate(108,46)"/>
<path d="M0,0 L3,0 L4,5 L-4,5 Z " fill="#C75F27" transform="translate(30,26)"/>
<path d="M0,0 L4,0 L4,4 L-4,4 Z " fill="#E8C77D" transform="translate(34,22)"/>
<path d="M0,0 L5,3 L6,6 L8,7 L8,9 L3,7 L0,3 Z " fill="#E2B570" transform="translate(81,11)"/>
<path d="M0,0 L11,1 L8,2 L7,5 L6,3 L0,2 Z " fill="#6C240B" transform="translate(68,3)"/>
<path d="M0,0 L1,3 L-1,6 L-2,11 L-7,12 L-5,8 Z " fill="#D3AD75" transform="translate(103,82)"/>
<path d="M0,0 L1,0 L3,11 L4,14 L2,15 L2,13 L0,13 Z " fill="#C3A06A" transform="translate(14,67)"/>
<path d="M0,0 L4,2 L2,2 L3,6 L2,9 L6,10 L0,10 Z " fill="#C7602A" transform="translate(7,66)"/>
<path d="M0,0 L4,1 L3,4 L3,2 L1,2 L1,4 L-2,6 L-6,5 L-3,2 L0,2 Z " fill="#BE5A28" transform="translate(77,6)"/>
<path d="M0,0 L2,4 L4,4 L4,8 L0,8 L-1,2 Z " fill="#353535" transform="translate(53,78)"/>
<path d="M0,0 L4,0 L4,7 L1,6 Z " fill="#5E1E08" transform="translate(107,40)"/>
<path d="M0,0 L3,1 L2,2 L-5,2 L-5,7 L-9,8 L-6,1 Z " fill="#802C0B" transform="translate(41,29)"/>
<path d="M0,0 L5,2 L5,4 L-3,4 L-2,1 Z " fill="#090203" transform="translate(69,116)"/>
<path d="M0,0 L1,2 L-5,10 L-7,11 L-5,6 Z " fill="#322C24" transform="translate(102,82)"/>
<path d="M0,0 L1,0 L1,8 L-3,7 L-3,1 L-1,2 Z " fill="#CB6C2E" transform="translate(21,63)"/>
<path d="M0,0 L2,4 L2,9 L-1,11 L-1,4 Z " fill="#471708" transform="translate(118,46)"/>
<path d="M0,0 L2,3 L3,12 L1,12 L-1,5 Z " fill="#333333" transform="translate(65,31)"/>
<path d="M0,0 L3,1 L4,3 L4,11 L3,11 L1,4 L-1,5 Z " fill="#7F2B0D" transform="translate(111,33)"/>
<path d="M0,0 L3,0 L3,8 L-2,3 L-2,1 Z " fill="#D4A267" transform="translate(99,26)"/>
<path d="M0,0 L2,1 L1,6 L4,7 L2,8 L0,12 L-1,1 Z " fill="#1C1C1C" transform="translate(42,41)"/>
<path d="M0,0 L2,4 L4,8 L-2,7 L-2,4 L0,4 Z " fill="#CB6C32" transform="translate(22,36)"/>
<path d="M0,0 L4,0 L4,3 L2,3 L2,6 L0,6 L-2,2 L0,2 Z " fill="#D07432" transform="translate(91,29)"/>
<path d="M0,0 L5,0 L6,4 L5,6 L3,5 L3,3 L0,2 Z " fill="#B66337" transform="translate(53,107)"/>
<path d="M0,0 L5,2 L3,3 L-1,2 L-1,4 L-7,3 L-4,1 Z " fill="#C97E45" transform="translate(43,104)"/>
<path d="M0,0 L4,2 L7,5 L0,5 Z " fill="#E6C77F" transform="translate(29,97)"/>
<path d="M0,0 L1,0 L2,5 L8,7 L8,8 L0,8 Z " fill="#752B0F" transform="translate(14,88)"/>
<path d="M0,0 L2,0 L2,2 L4,3 L1,5 L-3,3 L-3,1 Z " fill="#9A3812" transform="translate(15,26)"/>
<path d="M0,0 L2,1 L3,8 L-2,5 L-2,3 L0,3 Z " fill="#DA8641" transform="translate(18,59)"/>
<path d="M0,0 L6,0 L5,4 L2,5 L2,1 Z " fill="#E8C17F" transform="translate(66,15)"/>
<path d="M0,0 L6,2 L2,4 L-2,4 L-2,2 L0,2 Z " fill="#E5B26F" transform="translate(37,102)"/>
<path d="M0,0 L4,1 L4,6 L1,5 Z " fill="#F4CD7C" transform="translate(19,71)"/>
<path d="M0,0 L4,0 L5,6 L4,4 L-2,2 Z " fill="#622005" transform="translate(76,26)"/>
<path d="M0,0 L8,1 L8,3 L2,3 L0,2 Z " fill="#C85E27" transform="translate(53,7)"/>
<path d="M0,0 L6,0 L6,3 L0,3 Z " fill="#140403" transform="translate(67,7)"/>
<path d="M0,0 L7,1 L4,5 L2,5 Z " fill="#C45927" transform="translate(42,6)"/>
<path d="M0,0 L8,1 L7,4 L3,3 Z " fill="#561D07" transform="translate(59,116)"/>
<path d="M0,0 L9,1 L9,4 L3,3 L0,2 Z " fill="#AB4213" transform="translate(39,109)"/>
<path d="M0,0 L3,2 L4,8 L1,7 Z " fill="#B35120" transform="translate(14,86)"/>
<path d="M0,0 L2,1 L3,10 L1,9 L-1,2 Z " fill="#9C9C9C" transform="translate(59,58)"/>
<path d="M0,0 L2,0 L3,6 L-2,4 L0,3 Z " fill="#252525" transform="translate(52,47)"/>
<path d="M0,0 L3,4 L3,6 L-2,4 L-3,1 Z " fill="#E79D53" transform="translate(56,14)"/>
<path d="M0,0 L6,2 L6,6 L3,5 L3,2 L0,1 Z " fill="#B15924" transform="translate(83,12)"/>
<path d="M0,0 L5,1 L5,4 L1,3 Z " fill="#0A0302" transform="translate(90,78)"/>
<path d="M0,0 L2,0 L2,5 L-2,7 Z " fill="#848484" transform="translate(45,37)"/>
<path d="M0,0 L5,1 L5,4 L0,3 Z " fill="#501A07" transform="translate(24,36)"/>
<path d="M0,0 L4,0 L4,2 L9,2 L9,3 L1,3 Z " fill="#A84C1C" transform="translate(91,35)"/>
<path d="M0,0 L2,0 L2,2 L-1,2 L-2,5 L-7,4 L-3,2 Z " fill="#B3905F" transform="translate(90,98)"/>
<path d="M0,0 L4,1 L4,8 L3,4 L1,4 Z " fill="#D06E30" transform="translate(8,58)"/>
<path d="M0,0 L6,1 L5,3 L0,3 Z " fill="#933410" transform="translate(20,43)"/>
<path d="M0,0 L5,1 L4,5 L0,1 Z " fill="#67230A" transform="translate(66,22)"/>
<path d="M0,0 L5,0 L5,3 L0,3 Z " fill="#0C0302" transform="translate(89,12)"/>
<path d="M0,0 L6,0 L2,3 L-1,3 Z " fill="#D06A30" transform="translate(77,110)"/>
<path d="M0,0 L2,2 L1,4 L3,5 L-2,4 L-2,1 Z " fill="#E2954F" transform="translate(19,87)"/>
<path d="M0,0 L3,0 L5,5 L3,8 L2,1 Z " fill="#581D07" transform="translate(113,70)"/>
<path d="M0,0 L7,1 L5,3 L2,3 L2,1 Z " fill="#E6AF6B" transform="translate(48,107)"/>
<path d="M0,0 L1,0 L1,5 L-2,5 L-2,1 Z " fill="#7A2907" transform="translate(102,72)"/>
<path d="M0,0 L2,0 L2,5 L-1,6 Z " fill="#F1C371" transform="translate(12,68)"/>
<path d="M0,0 L5,1 L5,4 L0,3 Z " fill="#171717" transform="translate(41,67)"/>
<path d="M0,0 L5,1 L5,4 L0,1 Z " fill="#838383" transform="translate(46,58)"/>
<path d="M0,0 L5,1 L6,3 L3,4 Z " fill="#818181" transform="translate(63,58)"/>
<path d="M0,0 L3,1 L2,3 L0,3 L-1,7 L-1,1 Z " fill="#C35A28" transform="translate(8,51)"/>
<path d="M0,0 L5,0 L5,3 L1,3 Z " fill="#A73D17" transform="translate(25,41)"/>
<path d="M0,0 L3,0 L2,7 L0,3 Z " fill="#BE9B63" transform="translate(14,40)"/>
<path d="M0,0 L4,1 L2,1 L1,4 L-2,3 L-2,1 Z " fill="#501A07" transform="translate(87,10)"/>
<path d="M0,0 L3,0 L3,3 L-2,2 Z " fill="#424242" transform="translate(71,66)"/>
<path d="M0,0 L2,0 L2,3 L-2,5 L-1,1 Z " fill="#616161" transform="translate(74,60)"/>
<path d="M0,0 L5,0 L5,2 L3,2 L2,5 Z " fill="#C35B24" transform="translate(106,33)"/>
<path d="M0,0 L3,4 L2,6 L-1,5 Z " fill="#464646" transform="translate(46,46)"/>
<path d="M0,0 L3,1 L3,4 L0,4 Z " fill="#C2582A" transform="translate(112,43)"/>
<path d="M0,0 L4,0 L4,2 L0,3 Z " fill="#EAA257" transform="translate(64,110)"/>
<path d="M0,0 L2,1 L2,3 L-2,4 Z " fill="#EA9D55" transform="translate(104,87)"/>
<path d="M0,0 L1,3 L-1,5 L-2,1 Z " fill="#CE9F63" transform="translate(102,78)"/>
<path d="M0,0 L1,2 L-4,4 L-3,1 Z " fill="#A5A5A5" transform="translate(64,73)"/>
<path d="M0,0 L3,1 L2,5 Z " fill="#737373" transform="translate(46,68)"/>
<path d="M0,0 L4,1 L4,3 L0,3 Z " fill="#626262" transform="translate(50,32)"/>
<path d="M0,0 L4,1 L4,3 L0,2 Z " fill="#81290B" transform="translate(58,109)"/>
<path d="M0,0 L4,1 L3,3 L0,2 Z " fill="#B95019" transform="translate(41,98)"/>
<path d="M0,0 L2,3 L2,5 L-1,5 Z " fill="#B85223" transform="translate(100,38)"/>
<path d="M0,0 L2,0 L2,3 L-3,2 Z " fill="#BC4E20" transform="translate(30,34)"/>
<path d="M0,0 L2,1 L2,4 L-1,3 Z " fill="#E08F45" transform="translate(47,8)"/>
<path d="M0,0 L2,0 L1,3 L-2,2 Z " fill="#F2C47F" transform="translate(74,97)"/>
<path d="M0,0 L3,1 L3,3 L0,3 Z " fill="#8E310B" transform="translate(80,95)"/>
<path d="M0,0 L4,2 L1,3 Z " fill="#5E5E5E" transform="translate(71,37)"/>
<path d="M0,0 L3,1 L1,4 Z " fill="#787878" transform="translate(64,71)"/>
</svg>
