<svg xmlns="http://www.w3.org/2000/svg" width="215" height="215"><path fill="#F3F3F3" d="M0 0h215v215H0z"/><path fill="#F0F0F0" d="M118 78h15v15h15V78h15v15h15v15h15v-6l-2 1-1 3-5-1c.313-1.875.313-1.875 1-4 3.699-2.466 6.708-2.569 11-2 2.363 1.156 4.15 2.15 6 4 .156 1.413.25 2.834.316 4.254l.127 2.588.12 2.72.13 2.733q.16 3.353.307 6.705l2 1v2h-7l-1-3-1.562 1.5c-3.267 2.01-5.672 1.784-9.438 1.5l-1-1a236 236 0 0 0-7-1v2h-7l-1-3-1.562 1.5c-3.75 2.308-7.214 2.006-11.446 1.043A127 127 0 0 1 153 123v2h-5v13h15v15h15v15h30v15h-15v15h-15v15h-15v-15h-15v15h-15v-30h-15v-15h-15v-15H88v-15H73v-15h-5v2H53v-2l3-1v-20l-3-1v-2h8l1 4 1-2c2-2 2-2 3.98-2.266 2.009.015 4.016.135 6.02.266v-6h15v6l2.875-.062C94 99 94 99 96 100v5l-4 1-1-3c-1.975.348-1.975.348-4 1-1.594 3.188-1.102 6.629-1.062 10.125l.013 2.285q.02 2.795.049 5.59h13l-.312-4.312c.027-4.385.027-4.385 2.25-6.75 4.086-1.251 7.824-1.187 12.062-.938l-1-7h-6l-1 3-5-1c.313-1.875.313-1.875 1-4 3.63-2.42 6.774-2.72 11-2l5 3z"/><path fill="#FFFDFD" d="M13 63h15v15h15v11l4 1-1 5-10-2v6h-3l-1-5h-4v14h14l-1-6-3-1v-2h9l1 23 3 1v2H37v-2h-7v2h-2v13h15v15h15v15h15v15h15v30H73v-15H58v15H43v-15H28v15H13v-15H0V78h13z"/><path fill="#F0F0F0" d="M0 198h13v15h15v-15h15v15h15v-15h15v15h15v-15h15v15h15v-15h15v15h15v-15h15v15h15v-15h15v15h15v-15h7v17H0z"/><path fill="#FEF9F9" d="M88 78h15v15h15v10l-2.5-1.5c-4.336-1.858-6.822-1.883-11.5-1.5l-3 2v3l4 1 1-4c2-.043 4-.04 6 0 1 1 1 1 1.063 4.563L113 110l-1.828.148-2.422.227-2.39.21c-2.737.365-2.737.365-6.36 2.415v10q-3.468.039-6.937.063l-3.903.035C86 123 86 123 85 122a150 150 0 0 1-.25-7.812l-.062-2.198c-.025-3.364.07-5.588 1.828-8.502L88 102l4 1v3l3-1 1-5-8-1z"/><path fill="#EFEDED" d="M8 91h27v8h-2l-1-5h-4v14h14l-1-6-3-1v-2h9l1 23 3 1v2H37v-2h-7v2H14v-2l4-1 1-28-7 1-1 4H8z"/><path fill="#EFEBEB" d="M73 93h15v6l2.875-.062C94 99 94 99 96 100v5l-4 1-1-3c-1.975.348-1.975.348-4 1-1.594 3.188-1.102 6.629-1.062 10.125l.013 2.285q.02 2.795.049 5.59l4 1v2H76v-2l3-1 1-14h-7v15h-5v2H53v-2l3-1v-20l-3-1v-2h8l1 4 1-2c2-2 2-2 3.98-2.266 2.009.015 4.016.135 6.02.266z"/><path fill="#FD1A1A" d="M170 99c2.363 1.156 4.15 2.15 6 4 .156 1.413.25 2.834.316 4.254l.127 2.588.12 2.72.13 2.733q.16 3.353.307 6.705l2 1v2h-7l-1-3-1.562 1.5c-3.387 2.084-5.532 2.058-9.438 1.5-2.5-2.062-2.5-2.062-4-5-.062-3.625-.062-3.625 1-7 3.059-2.963 5.723-3.162 9.813-3.187 1.396.047 2.792.105 4.187.187l-1-7h-6l-1 3-5-1c.313-1.875.313-1.875 1-4 3.699-2.466 6.708-2.569 11-2"/><path fill="#FE0F0F" d="M197 99c2.363 1.156 4.15 2.15 6 4 .156 1.413.25 2.834.316 4.254l.127 2.588.12 2.72.13 2.733q.16 3.353.307 6.705l2 1v2h-7l-1-3-1.562 1.5c-3.387 2.084-5.532 2.058-9.438 1.5-2.5-2.062-2.5-2.062-4-5-.062-3.625-.062-3.625 1-7 3.059-2.963 5.723-3.162 9.813-3.187 1.396.047 2.792.105 4.187.187l-1-7h-6l-1 3-5-1c.313-1.875.313-1.875 1-4 3.699-2.466 6.708-2.569 11-2M112 99c2.363 1.156 4.15 2.15 6 4 .156 1.413.25 2.834.316 4.254l.127 2.588.12 2.72.13 2.733q.16 3.353.307 6.705l2 1v2h-7l-1-3-1.625 1.5c-3.057 1.931-4.813 1.945-8.375 1.5-2.375-.937-2.375-.937-4-3-.622-3.121-.65-5.882 0-9 2.333-2.484 3.975-2.928 7.336-3.164A97 97 0 0 1 113 110l-1-7h-6l-1 3-5-1c.313-1.875.313-1.875 1-4 3.699-2.466 6.708-2.569 11-2"/><path fill="#FE1414" d="M125 99h8l1 2 3-2c2.156-.117 2.156-.117 4.5.125l2.344.195c2.156.68 2.156.68 3.894 2.157 1.911 3.821 1.834 7.553 1.95 11.773l.103 2.547c.082 2.067.147 4.135.209 6.203l3 1v2h-9l-.076-1.912q-.175-4.263-.362-8.525l-.119-3.01-.127-2.862-.11-2.65c.012-2.034.012-2.034-1.206-3.041-3.517.252-3.517.252-7 1-1.594 3.188-1.102 6.629-1.062 10.125l.013 2.285q.02 2.795.049 5.59l3 1v2h-13v-2l4-2 1-19-4-1z"/><path fill="#FE0B0B" d="M8 91h27v8h-2l-2-5-7-1 1 29 4 1v2H14v-2l4-1 1-28-7 1-1 4H8z"/><path fill="#F0ECEC" d="M106 102c2-.043 4-.04 6 0 1 1 1 1 1.063 4.563L113 110l-1.828.148-2.422.227c-.789.07-1.578.14-2.39.21-2.737.365-2.737.365-6.36 2.415v10H86l2-1v-14h15v-2h2z"/><path fill="#EFEAEA" d="M28 78h15v11l4 1-1 5-10-2v6h-1v-8h-7z"/><path fill="#FFF" d="M193 198h15v15h-15zM163 198h15v15h-15zM133 198h15v15h-15zM103 198h15v15h-15zM73 198h15v15H73zM43 198h15v15H43zM13 198h15v15H13zM178 183h15v15h-15z"/><path fill="#EFEFEF" d="M163 183h15v15h-15z"/><path fill="#FFF" d="M148 183h15v15h-15zM118 183h15v15h-15z"/><path fill="#EFEFEF" d="M103 183h15v15h-15z"/><path fill="#FFF" d="M88 183h15v15H88z"/><path fill="#EFEFEF" d="M73 183h15v15H73z"/><path fill="#FFF" d="M58 183h15v15H58z"/><path fill="#EFEFEF" d="M43 183h15v15H43z"/><path fill="#FFF" d="M28 183h15v15H28z"/><path fill="#EFEFEF" d="M13 183h15v15H13z"/><path fill="#FFF" d="M193 168h15v15h-15zM163 168h15v15h-15zM133 168h15v15h-15zM103 168h15v15h-15z"/><path fill="#EFEFEF" d="M88 168h15v15H88z"/><path fill="#FFF" d="M73 168h15v15H73z"/><path fill="#EFEFEF" d="M58 168h15v15H58z"/><path fill="#FFF" d="M43 168h15v15H43z"/><path fill="#EFEFEF" d="M28 168h15v15H28z"/><path fill="#FFF" d="M13 168h15v15H13z"/><path fill="#EFEFEF" d="M193 153h15v15h-15z"/><path fill="#FFF" d="M178 153h15v15h-15zM148 153h15v15h-15zM118 153h15v15h-15zM88 153h15v15H88z"/><path fill="#EFEFEF" d="M73 153h15v15H73z"/><path fill="#FFF" d="M58 153h15v15H58z"/><path fill="#EFEFEF" d="M43 153h15v15H43z"/><path fill="#FFF" d="M28 153h15v15H28z"/><path fill="#EFEFEF" d="M13 153h15v15H13z"/><path fill="#FFF" d="M193 138h15v15h-15z"/><path fill="#EFEFEF" d="M178 138h15v15h-15z"/><path fill="#FFF" d="M163 138h15v15h-15z"/><path fill="#EFEFEF" d="M148 138h15v15h-15z"/><path fill="#FFF" d="M133 138h15v15h-15zM103 138h15v15h-15zM73 138h15v15H73z"/><path fill="#EFEFEF" d="M58 138h15v15H58z"/><path fill="#FFF" d="M43 138h15v15H43z"/><path fill="#EFEFEF" d="M28 138h15v15H28z"/><path fill="#FFF" d="M13 138h15v15H13zM193 78h15v15h-15z"/><path fill="#EFEFEF" d="M178 78h15v15h-15z"/><path fill="#FFF" d="M163 78h15v15h-15zM133 78h15v15h-15z"/><path fill="#EFEFEF" d="M118 78h15v15h-15z"/><path fill="#FFF" d="M103 78h15v15h-15z"/><path fill="#EFEFEF" d="M88 78h15v15H88z"/><path fill="#FFF" d="M73 78h15v15H73z"/><path fill="#EFEFEF" d="M193 63h15v15h-15z"/><path fill="#FFF" d="M178 63h15v15h-15z"/><path fill="#EFEFEF" d="M163 63h15v15h-15z"/><path fill="#FFF" d="M148 63h15v15h-15z"/><path fill="#EFEFEF" d="M133 63h15v15h-15z"/><path fill="#FFF" d="M118 63h15v15h-15z"/><path fill="#EFEFEF" d="M103 63h15v15h-15z"/><path fill="#FFF" d="M88 63h15v15H88z"/><path fill="#EFEFEF" d="M73 63h15v15H73z"/><path fill="#FFF" d="M58 63h15v15H58z"/><path fill="#EFEFEF" d="M43 63h15v15H43z"/><path fill="#FFF" d="M28 63h15v15H28z"/><path fill="#EFEFEF" d="M13 63h15v15H13z"/><path fill="#FFF" d="M193 48h15v15h-15z"/><path fill="#EFEFEF" d="M178 48h15v15h-15z"/><path fill="#FFF" d="M163 48h15v15h-15z"/><path fill="#EFEFEF" d="M148 48h15v15h-15z"/><path fill="#FFF" d="M133 48h15v15h-15z"/><path fill="#EFEFEF" d="M118 48h15v15h-15z"/><path fill="#FFF" d="M103 48h15v15h-15z"/><path fill="#EFEFEF" d="M88 48h15v15H88z"/><path fill="#FFF" d="M73 48h15v15H73z"/><path fill="#EFEFEF" d="M58 48h15v15H58z"/><path fill="#FFF" d="M43 48h15v15H43z"/><path fill="#EFEFEF" d="M28 48h15v15H28z"/><path fill="#FFF" d="M13 48h15v15H13z"/><path fill="#EFEFEF" d="M193 33h15v15h-15z"/><path fill="#FFF" d="M178 33h15v15h-15z"/><path fill="#EFEFEF" d="M163 33h15v15h-15z"/><path fill="#FFF" d="M148 33h15v15h-15z"/><path fill="#EFEFEF" d="M133 33h15v15h-15z"/><path fill="#FFF" d="M118 33h15v15h-15z"/><path fill="#EFEFEF" d="M103 33h15v15h-15z"/><path fill="#FFF" d="M88 33h15v15H88z"/><path fill="#EFEFEF" d="M73 33h15v15H73z"/><path fill="#FFF" d="M58 33h15v15H58z"/><path fill="#EFEFEF" d="M43 33h15v15H43z"/><path fill="#FFF" d="M28 33h15v15H28z"/><path fill="#EFEFEF" d="M13 33h15v15H13z"/><path fill="#FFF" d="M193 18h15v15h-15z"/><path fill="#EFEFEF" d="M178 18h15v15h-15z"/><path fill="#FFF" d="M163 18h15v15h-15z"/><path fill="#EFEFEF" d="M148 18h15v15h-15z"/><path fill="#FFF" d="M133 18h15v15h-15z"/><path fill="#EFEFEF" d="M118 18h15v15h-15z"/><path fill="#FFF" d="M103 18h15v15h-15z"/><path fill="#EFEFEF" d="M88 18h15v15H88z"/><path fill="#FFF" d="M73 18h15v15H73z"/><path fill="#EFEFEF" d="M58 18h15v15H58z"/><path fill="#FFF" d="M43 18h15v15H43z"/><path fill="#EFEFEF" d="M28 18h15v15H28z"/><path fill="#FFF" d="M13 18h15v15H13z"/><path fill="#EFEFEF" d="M193 3h15v15h-15z"/><path fill="#FFF" d="M178 3h15v15h-15z"/><path fill="#EFEFEF" d="M163 3h15v15h-15z"/><path fill="#FFF" d="M148 3h15v15h-15z"/><path fill="#EFEFEF" d="M133 3h15v15h-15z"/><path fill="#FFF" d="M118 3h15v15h-15z"/><path fill="#EFEFEF" d="M103 3h15v15h-15z"/><path fill="#FFF" d="M88 3h15v15H88z"/><path fill="#EFEFEF" d="M73 3h15v15H73z"/><path fill="#FFF" d="M58 3h15v15H58z"/><path fill="#EFEFEF" d="M43 3h15v15H43z"/><path fill="#FFF" d="M28 3h15v15H28z"/><path fill="#EFEFEF" d="M13 3h15v15H13z"/><path fill="#FFFEFE" d="M90 123q2.688-.04 5.375-.062l3.023-.036C101 123 101 123 103 124v14H88v-13h2z"/><path fill="#EFEEEE" d="m198 121 1 4h7v-2h2v15h-15c-.488-9.766-.488-9.766 0-13 2.52-2.422 2.52-2.422 5-4"/><path fill="#FFFEFE" d="M179 123c5.192-.212 9.127.409 14 2v13h-15c-.125-12.75-.125-12.75 1-15M43 78h15v15H47l-1-3-3-1z"/><path fill="#EFEEEE" d="M137 123h7v2h4v13h-15v-13h4z"/><path fill="#FFF" d="M30 123h7v2h6v13H28v-13h2z"/><path fill="#EFEEEE" d="m171 121 1 4h6v13h-15v-13l3.438-1.437c3.32-1.2 3.32-1.2 4.562-2.563M113 121l1 4h4v13h-15v-13l6.055-1.367c2.152-.538 2.152-.538 3.945-2.633"/><path fill="#FE1010" d="M53 99h8l1 4 1.125-2C65 99 65 99 68 98.625 71 99 71 99 74 101l-1 4-4 1-1-3h-3c-2.45 3.742-2.23 7.442-2.125 11.75l.027 2.113c.024 1.713.06 3.425.098 5.137l4 1v2H53v-2l3-1v-20l-3-1z"/><path fill="#FFF" d="M68 123h5v15H58v-13h10z"/><path fill="#FE0E0E" d="M76 99h8l1 3 1.125-1.5c2.65-2.12 4.57-1.781 7.875-1.5l2 1v5l-4 1-1-3c-1.975.348-1.975.348-4 1-1.594 3.188-1.102 6.629-1.062 10.125l.013 2.285q.02 2.795.049 5.59l4 1v2H76v-2l3-1v-20l-3-1z"/><path fill="#FFF" d="M121 123h3v2h9v13h-15v-13h3z"/><path fill="#F0EDED" d="M164 102c2-.043 4-.04 6 0 1 1 1 1 1.063 4.563L171 110l-1.828.148-2.422.227c-.789.07-1.578.14-2.39.21-2.516.442-4.237.992-6.36 2.415-.912 3.86-1.261 6.216 0 10-6.152.098-6.152.098-8 0-1-1-1-1-1.098-4.16l.036-3.903.027-3.91L149 108l2.555-.184 3.32-.254c1.09-.08 2.181-.162 3.305-.246 2.767-.146 2.767-.146 4.82-1.316.652-2.025.652-2.025 1-4"/><path fill="#EFEEEE" d="M51 123h2v2h5v13H43v-13h8z"/><path fill="#EFEFEF" d="m13 123 1 2h14v13H13z"/><path fill="#FFF" d="M0 183h13v15H0z"/><path fill="#EFEFEF" d="M0 168h13v15H0z"/><path fill="#FFF" d="M0 153h13v15H0z"/><path fill="#EFEFEF" d="M0 138h13v15H0z"/><path fill="#FFF" d="M0 123h13v15H0z"/><path fill="#EFEFEF" d="M0 108h13v15H0z"/><path fill="#FFF" d="M13 78h15v13H13zM0 63h13v15H0z"/><path fill="#EFEFEF" d="M0 48h13v15H0z"/><path fill="#FFF" d="M0 33h13v15H0z"/><path fill="#EFEFEF" d="M0 18h13v15H0z"/><path fill="#FFF" d="M0 3h13v15H0z"/><path fill="#FFFEFE" d="M148 93h15v6c-2 1.688-2 1.688-4 3v3l4 3h-14c-1.286-5.143-1.063-9.699-1-15"/><path fill="#FFFDFD" d="M178 93h15v6l-7 3v3l4 1 1-4h2v6h-15z"/><path fill="#EFEFEF" d="M0 78h13v13H8v2H0z"/><path fill="#FE0F0F" d="M170 99c2.363 1.156 4.15 2.15 6 4 .156 1.413.25 2.834.316 4.254l.127 2.588.12 2.72.13 2.733q.16 3.353.307 6.705l2 1v2h-7c-1.102-4.41-1.077-8.484-1-13h-5v-2h5l-1-7h-6l-1 3-5-1c.313-1.875.313-1.875 1-4 3.699-2.466 6.708-2.569 11-2"/><path fill="#FD1B1B" d="M193 111c1.665.34 3.332.676 5 1 .653 3.024 1.112 5.9 1 9-2.639 3.381-4.35 3.897-8.562 4.563C187 125 187 125 184.5 122.937c-1.977-3.87-1.796-5.82-.5-9.937 3.204-2.77 5.05-3.481 9-2"/><path fill="snow" d="M36 93c2-.043 4-.04 6 0 1 1 1 1 1.063 3.563L43 99h-5v2l4 1v6H28V94h4l1 5h3z"/><path fill="#F0E4E4" d="M128 102h1c.058 3.125.094 6.25.125 9.375l.05 2.695.02 2.578.032 2.38C129 121 129 121 127 123c-2.715.328-5.252.13-8 0-1-1-1-1-1.098-4.16l.035-3.903.028-3.91L118 108h10z"/><path fill="#FE1010" d="M38 99h9l1 23 3 1v2H38v-2l3-1v-20l-3-1z"/><path fill="#FFFDFD" d="M47 108h10q.039 3.468.063 6.938l.035 3.902C57 122 57 122 56 123c-1.812.133-1.812.133-4 .125l-2.187.008C48 123 48 123 47 122a177 177 0 0 1-.062-7.062l.027-3.91z"/><path fill="#EFECEC" d="M193 93h15v15h-5l-.5-2.812c-1.684-3.58-2.11-3.778-5.625-5.063A98 98 0 0 0 193 99z"/><path fill="#FE0707" d="M125 99h8l1 2 3 1-1.488 1.484c-2.115 3.52-1.836 6.793-1.7 10.766l.042 2.258c.035 1.83.089 3.662.146 5.492l3 1v2h-13v-2l4-2 1-19-4-1z"/><path fill="#EFEBEB" d="M133 93h15v9l-2.125-1c-4.267-1.484-7.607-1.423-11.875 0l-1 2z"/><path fill="#FFF" d="M208 183h7v15h-7z"/><path fill="#EFEFEF" d="M208 168h7v15h-7z"/><path fill="#FFF" d="M208 153h7v15h-7z"/><path fill="#EFEFEF" d="M208 138h7v15h-7z"/><path fill="#FFF" d="M208 123h7v15h-7zM208 93h7v15h-7z"/><path fill="#EFEFEF" d="M208 78h7v15h-7z"/><path fill="#FFF" d="M208 63h7v15h-7z"/><path fill="#EFEFEF" d="M208 48h7v15h-7z"/><path fill="#FFF" d="M208 33h7v15h-7z"/><path fill="#EFEFEF" d="M208 18h7v15h-7z"/><path fill="#FFF" d="M208 3h7v15h-7z"/><path fill="#FFFCFC" d="M73 108h7q.039 3.468.063 6.938l.035 3.902C80 122 80 122 79 123h-6z"/><path fill="#EFEBEB" d="M103 93h15v10l-2.437-1.5c-4.383-1.845-7.886-1.78-12.563-1.5z"/><path fill="#FFFBFB" d="M58 93h15v6l-3.75.25c-3.239.385-4.13.65-6.75 2.813L61 104v-5h-3z"/><path fill="#FE1414" d="M108 110v2l-2 1.313c-2.285 1.538-2.285 1.538-2.312 4.312.06 2.326.06 2.326 1.312 3.375 3.722.294 4.778.148 8-2 0 3 0 3-1.625 4.688-3.058 1.69-4.924 1.743-8.375 1.312-2.375-.937-2.375-.937-4-3-.621-3.117-.678-5.89 0-9 3.174-2.91 4.652-3 9-3"/><path fill="#EFEFEF" d="M12 94h7v14h-6q-.252-2.656-.5-5.312l-.281-2.989C12 97 12 97 12 94"/><path fill="#F0E2E2" d="M198 112c.363 6.408.363 6.408-1.187 8.938-2.434 1.426-4.038 1.418-6.813 1.062-2-2-2-2-2.312-4.437.312-2.563.312-2.563 1.375-4.376 2.93-1.795 5.584-1.377 8.937-1.187"/><path fill="#FCF5F5" d="M171 112c.363 6.408.363 6.408-1.187 8.938-2.434 1.426-4.038 1.418-6.813 1.062-2-2-2-2-2.312-4.437.312-2.563.312-2.563 1.375-4.376 2.93-1.795 5.584-1.377 8.937-1.187"/><path fill="#FFF7F7" d="M113 112c.363 6.408.363 6.408-1.187 8.938-2.434 1.426-4.038 1.418-6.813 1.062-2-2-2-2-2.312-4.437.312-2.563.312-2.563 1.374-4.376 2.93-1.795 5.585-1.377 8.938-1.187"/><path fill="#FFFDFD" d="M203 108h5v15l-5-1z"/><path fill="#F3DADA" d="M142 102c2 2 2 2 2 6h-10v14h-1a440 440 0 0 1-.25-7.75l-.102-2.21c-.065-3.59.033-5.61 2.204-8.532 2.63-1.847 3.998-2.005 7.148-1.508"/><path fill="#F0DEDE" d="M24 93h7l-3 1v14h-4z"/><path fill="#FFF4F4" d="M24 108h4v15l-4-1z"/><path fill="#FE1B1B" d="M68 98.625C71 99 71 99 74 101l-1 4-4 1-1-3h-3l-2 2-1-2c1.747-3.105 2.372-3.921 6-4.375"/><path fill="#EFEFEF" d="M178 0h15v3h-15z"/><path fill="#FFF" d="M163 0h15v3h-15z"/><path fill="#EFEFEF" d="M148 0h15v3h-15z"/><path fill="#FFF" d="M133 0h15v3h-15z"/><path fill="#EFEFEF" d="M118 0h15v3h-15z"/><path fill="#FFF" d="M103 0h15v3h-15z"/><path fill="#EFEFEF" d="M88 0h15v3H88z"/><path fill="#FFF" d="M73 0h15v3H73z"/><path fill="#EFEFEF" d="M58 0h15v3H58z"/><path fill="#FFF" d="M43 0h15v3H43z"/><path fill="#EFEFEF" d="M28 0h15v3H28z"/><path fill="#FFFDFD" d="M193 112h5c.125 3.375.125 3.375 0 7l-2 2h-3z"/><path fill="#FE2A2A" d="m194 99 2 3-5 1-1 3-5-1c.313-1.875.313-1.875 1-4 3.208-2.139 4.277-2.477 8-2"/><path fill="#FD2929" d="m167 99 2 3-5 1-1 3-5-1c.313-1.875.313-1.875 1-4 3.208-2.139 4.277-2.477 8-2M109 99l2 3-5 1-1 3-5-1c.313-1.875.313-1.875 1-4 3.208-2.139 4.277-2.477 8-2"/><path fill="#FFF6F6" d="M65 102c2.063.438 2.063.438 4 1v3h4v2H63c.875-4.875.875-4.875 2-6"/><path fill="#EFEFEF" d="M0 0h13v3H0z"/><path fill="#FE1818" d="m42 89 5 1-1 5-4-1z"/><path fill="#EFEFEF" d="M208 0h7v3h-7z"/></svg>